PathFileType	4	(X/Y/Z)	H:\MAC\Pilotos\Biomecanica2_gait_2020\Trimmed_walk1.trc
DataRate	CameraRate	NumFrames	NumMarkers	Units	OrigDataRate	OrigDataStartFrame	OrigNumFrames
150.00	150.00	       10	28	mm	150.00	46	       364
Frame#	Time	R.ASIS			L.ASIS			R.PSIS			L.PSIS			L.Iliac.Crest			R.Iliac.Crest			R.GTR			R.Knee			R.HF			R.TT			R.Ankle			R.Heel			R.MT1			R.MT5			L.GTR			L.Knee			L.HF			L.TT			L.Ankle			L.Heel			L.MT1			L.MT5			R.Knee.Medial			R.Ankle.Medial			R.MT2			L.Knee.Medial			L.Ankle.Medial			L.MT2			
		X1	Y1	Z1	X2	Y2	Z2	X3	Y3	Z3	X4	Y4	Z4	X5	Y5	Z5	X6	Y6	Z6	X7	Y7	Z7	X8	Y8	Z8	X9	Y9	Z9	X10	Y10	Z10	X11	Y11	Z11	X12	Y12	Z12	X13	Y13	Z13	X14	Y14	Z14	X15	Y15	Z15	X16	Y16	Z16	X17	Y17	Z17	X18	Y18	Z18	X19	Y19	Z19	X20	Y20	Z20	X21	Y21	Z21	X22	Y22	Z22	X23	Y23	Z23	X24	Y24	Z24	X25	Y25	Z25	X26	Y26	Z26	X27	Y27	Z27	X28	Y28	Z28	

46	0.300	221.14171	1010.28943	-442.94583	210.58824	1026.19568	-212.77740	28.83434	1046.95837	-371.39484	22.28438	1048.70410	-272.71594	124.49230	1083.95642	-166.92572	138.20628	1069.24377	-491.65601	113.05012	935.51392	-509.81082	59.96984	522.41925	-471.57401	21.96644	471.56827	-480.56009	67.85954	410.91409	-435.19534	-229.57652	154.16864	-461.10083	-286.31555	170.89925	-412.62115	-130.62959	40.94231	-379.48309	-163.90527	40.87764	-462.71030	152.63528	933.58557	-141.69872	258.69904	525.59204	-195.83031	260.47665	463.75427	-193.09830	324.22562	443.31720	-252.77434	272.72424	73.64074	-223.91478	218.94275	36.35072	-272.01654	441.48840	42.51889	-292.37891	398.37048	35.22472	-208.31921	70.11642	502.62775	-341.88242	-199.49428	160.54204	-374.23917	-133.60202	33.59581	-413.54794	271.03320	525.47614	-324.73993	301.79749	86.35523	-315.69553	443.59366	36.46667	-252.72397	
47	0.307	229.23816	1011.75513	-441.48083	218.75230	1027.83411	-211.34451	36.87032	1048.26587	-370.09424	31.05326	1049.79150	-271.69333	132.56358	1085.40918	-166.31812	146.26649	1070.73779	-490.02579	121.63136	936.41730	-508.24854	75.11391	521.97314	-472.06314	37.10342	472.02847	-480.93958	82.80418	410.44424	-436.40942	-220.34285	160.33798	-460.10635	-275.98245	179.13539	-411.02414	-127.99393	41.68155	-379.31772	-160.64503	43.26737	-460.96014	160.54294	934.50525	-140.39116	264.72354	525.53278	-194.81631	264.90262	463.87723	-192.26187	328.78488	442.93073	-251.47491	272.61987	73.45161	-224.08163	218.91631	36.38049	-271.87610	441.48773	42.64545	-292.17511	398.41568	35.09797	-208.11206	87.91483	501.00522	-342.22971	-189.20154	164.78943	-373.60199	-131.24089	35.02735	-413.23752	277.91708	525.25885	-323.42395	301.93085	86.30305	-315.59531	443.67548	36.38599	-252.63205	
48	0.313	237.10437	1013.30273	-440.11307	226.84038	1029.38965	-209.95456	44.70234	1049.58337	-368.80933	39.63109	1050.82202	-270.58286	140.44168	1086.77258	-165.69476	153.98645	1072.34106	-488.29062	130.07663	937.36743	-506.78748	90.26626	521.24994	-472.70352	52.62144	472.05652	-481.13525	98.01159	409.92096	-437.41956	-210.62851	166.09705	-459.04297	-265.49527	187.13902	-409.46152	-124.46505	43.05511	-378.77701	-156.65271	46.51295	-459.57672	168.27728	935.40924	-139.12173	269.70941	525.54028	-193.80434	268.44843	463.86765	-190.83551	332.95303	442.39337	-250.01265	272.66748	73.40630	-223.95039	218.85112	36.40715	-271.67612	441.52014	42.45871	-292.22958	398.42422	34.97560	-207.84984	105.78185	499.50598	-342.67059	-178.91249	169.44446	-372.39380	-127.36959	37.04253	-412.65405	284.23892	524.94824	-322.18704	302.08969	86.30583	-315.41501	443.72849	36.29335	-252.45686	
49	0.320	244.78418	1014.78204	-438.85461	234.94000	1030.81995	-208.78749	52.43464	1050.87134	-367.50839	47.90919	1051.83472	-269.41733	148.40028	1087.98389	-165.05890	161.32558	1073.92505	-486.54453	138.48032	938.31769	-505.41891	105.54921	520.33563	-473.22775	68.33780	471.74655	-481.20569	113.70704	409.97391	-438.18192	-200.66092	172.12567	-457.70648	-254.83618	195.21265	-408.37152	-119.30134	45.38592	-377.76855	-151.89012	50.52398	-458.92160	175.90784	936.32684	-137.90256	273.99881	525.82208	-192.96460	271.96509	463.64920	-189.87975	336.76666	441.73132	-248.52734	272.74039	73.19539	-223.78165	218.77527	36.43166	-271.46933	441.44824	42.59449	-292.02347	398.43103	34.86826	-207.70029	123.51738	498.04102	-342.70935	-168.81711	174.28923	-370.95126	-121.99762	39.57303	-411.99860	289.90033	524.27844	-320.79535	302.14746	86.34285	-315.20731	443.75674	36.21633	-252.42767	
50	0.327	252.45712	1016.25281	-437.74002	242.93089	1032.11914	-207.67644	60.06088	1052.08069	-366.23022	56.08919	1052.80432	-268.27725	156.27248	1089.14380	-164.36252	168.47113	1075.39746	-484.84909	146.51826	939.17987	-504.07806	120.81879	519.44153	-473.69049	84.26983	471.25839	-481.54764	128.76825	409.03998	-437.89197	-190.40529	178.19936	-455.93066	-243.41444	203.24498	-406.76801	-111.23737	48.53371	-378.50208	-145.50726	55.29039	-457.73795	183.50587	937.23633	-136.85652	278.09460	525.57623	-191.90485	275.30963	463.43085	-188.92917	340.25067	440.93478	-247.34746	272.81729	73.04365	-223.53403	218.68944	36.44501	-271.25223	441.41888	42.41590	-292.17236	398.44189	34.76833	-207.53760	141.07547	496.57898	-342.57278	-158.99701	179.79126	-369.14261	-115.13448	42.55054	-411.47214	294.63849	523.60870	-319.58795	302.14145	86.40125	-315.00162	443.75922	36.07885	-252.36816	
51	0.333	259.88113	1017.60864	-436.81049	250.88800	1033.28394	-206.70923	67.56329	1053.17383	-364.91626	63.95052	1053.74817	-267.08038	164.21550	1090.23914	-163.52603	175.26387	1076.77649	-483.31885	154.43181	939.92126	-502.82758	136.10823	518.73767	-474.17709	100.25867	470.69287	-481.90607	144.33290	409.64877	-437.58759	-179.84831	184.08113	-454.02847	-231.47034	210.10107	-404.11475	-100.80567	52.59558	-379.88385	-137.43602	61.13852	-458.48654	191.04503	938.18872	-135.95453	281.27625	525.82825	-191.11844	278.44791	463.30695	-188.04514	343.22406	440.47800	-246.21556	272.98608	73.01688	-223.28427	218.61664	36.48127	-271.04343	441.38300	42.42954	-292.03168	398.43799	34.66900	-207.31024	157.86415	495.44666	-341.95203	-147.67184	184.95056	-367.15155	-106.78963	45.90676	-411.27563	298.50162	523.03168	-318.55191	302.20557	86.44150	-314.79651	443.77957	36.03068	-252.24213	
52	0.340	267.24786	1018.82611	-436.08551	258.91498	1034.31616	-205.86333	75.05666	1054.15222	-363.60782	71.76344	1054.72986	-265.89816	172.24130	1091.28931	-162.54456	182.03868	1077.93005	-481.89554	162.11891	940.56720	-501.65256	151.41774	518.35095	-474.54303	115.93099	470.42487	-482.13638	159.46255	409.89529	-436.91888	-168.85194	190.19106	-451.46896	-219.13576	215.37389	-400.39532	-89.31106	56.35502	-380.94424	-126.72987	66.83123	-458.17654	198.93251	939.16699	-135.17073	284.10464	525.93225	-190.31302	281.73337	463.22601	-187.76379	345.98474	439.91644	-245.38889	272.99963	72.87895	-223.06589	218.52682	36.51882	-270.87476	441.32440	42.44374	-291.92136	398.42825	34.56335	-207.08559	175.28438	494.26294	-342.14407	-135.44058	189.84695	-365.51450	-96.97259	49.57338	-411.61011	301.90402	522.70367	-317.79172	302.25082	86.54710	-314.56573	443.72397	36.10043	-252.16757	
53	0.347	274.70361	1019.82806	-436.00864	266.86282	1035.13391	-205.13231	82.49477	1055.06372	-362.40726	79.35027	1055.78833	-264.71121	180.42389	1092.21716	-161.37677	188.57567	1078.86902	-480.67947	169.60347	941.09308	-500.36960	166.68163	518.39063	-474.89032	131.27403	470.83127	-482.03961	174.21973	409.84061	-436.23315	-156.64499	195.61674	-448.99048	-206.23386	220.84555	-396.57901	-77.19178	59.61306	-382.14832	-114.75632	72.75893	-458.97552	207.47755	940.11414	-134.44820	286.92123	525.64587	-189.30397	284.51270	463.22812	-187.10083	348.52148	439.42215	-244.65346	272.84879	72.82712	-222.71082	218.43451	36.55288	-270.70786	441.26428	42.46612	-291.81424	398.41928	34.48341	-206.80244	191.83849	493.59198	-341.97345	-121.98212	194.31171	-363.28903	-85.69283	53.48206	-412.67651	303.94769	522.63916	-316.81387	302.26035	86.53036	-314.16983	443.71268	36.06023	-252.07066	
54	0.353	281.75531	1020.80243	-435.49481	275.03894	1035.89575	-204.50500	89.83939	1055.98499	-361.20068	86.98174	1056.89050	-263.51782	188.66104	1093.09839	-160.19208	195.06581	1079.66223	-479.67612	177.10703	941.48541	-499.48206	181.80882	518.91699	-475.14410	146.50197	471.89706	-481.97955	189.55341	410.66745	-435.92484	-143.38850	201.03491	-446.62549	-192.49887	225.30376	-392.74149	-64.35142	62.41262	-383.74130	-102.69221	78.08170	-459.43118	213.11186	941.32245	-133.60452	289.39832	525.80707	-188.62981	286.53870	463.31683	-185.96767	350.92862	438.89240	-243.89304	273.10437	72.71885	-222.61940	218.34006	36.57948	-270.57449	441.18875	42.50923	-291.64999	398.40878	34.39839	-206.57350	208.05316	493.43240	-341.85837	-108.06396	198.12448	-360.95883	-73.15578	57.52321	-414.48502	306.37277	522.86700	-316.24036	302.31628	86.63293	-313.89139	443.69995	36.00223	-251.92606	
55	0.360	288.79327	1021.69952	-435.09793	283.39087	1036.65710	-203.76952	97.09917	1056.92175	-359.97952	94.46743	1058.08215	-262.23807	196.99274	1093.99292	-158.93610	201.59090	1080.24036	-478.83392	184.40646	941.91431	-498.68924	196.83823	519.97717	-475.16470	161.88217	473.32623	-481.80524	205.06500	411.71976	-435.76331	-129.42378	205.60136	-444.22525	-177.86354	229.40552	-389.12790	-50.92620	64.70471	-385.43100	-90.27550	82.82077	-460.08426	220.51514	942.20050	-132.91399	291.77826	525.69830	-187.71339	288.56412	463.32629	-185.43007	353.02414	438.54166	-243.02643	273.05573	72.58894	-222.34052	218.26550	36.62311	-270.45377	441.11639	42.55391	-291.48816	398.33517	34.21200	-206.38228	223.81296	494.01453	-341.80267	-92.91093	200.89310	-359.14124	-60.07658	61.33037	-416.36310	308.55002	523.11298	-315.75214	302.39511	86.86897	-313.63150	443.66638	35.97253	-251.78197	
